<svg width="30" height="30" viewBox="0 0 30 30" fill="none" xmlns="http://www.w3.org/2000/svg">
<g clip-path="url(#clip0_22_2)">
<path d="M22.4998 0C23.3295 0 23.9998 0.839648 23.9998 1.875H29.2498C29.6623 1.875 29.9998 2.29453 29.9998 2.8125V10.3125C29.9998 10.8281 29.6623 11.25 29.2498 11.25H23.9998V30H20.9998V1.875C20.9998 0.839648 21.6701 0 22.4998 0ZM19.4998 30H19.5373H4.49983C3.67155 30 2.99983 29.1621 2.99983 28.125V16.875H1.45764C0.872173 16.875 0.310657 16.3887 0.0928761 15.6504C-0.124905 14.9121 0.0469386 14.0859 0.523423 13.5762L11.0248 2.32617C11.5873 1.72441 12.4123 1.72441 12.9748 2.32617L19.4998 9.31641V30Z" fill="black"/>
<path d="M10.4578 15H8.20776C7.83745 15 7.45776 15.4219 7.45776 15.9375V17.8125C7.45776 18.3281 7.83745 18.75 8.20776 18.75H10.4578V21.5625C10.4578 22.0781 10.8375 22.5 11.2078 22.5H12.7078C13.1625 22.5 13.4578 22.0781 13.4578 21.5625V18.75H15.75C16.1625 18.75 16.5 18.3281 16.5 17.8125V15.9375C16.5 15.4219 16.1625 15 15.75 15H13.4578V12.1875C13.4578 11.6719 13.1625 11.25 12.7078 11.25H11.2078C10.8375 11.25 10.4578 11.6719 10.4578 12.1875V15V15Z" fill="white"/>
</g>
<defs>
<clipPath id="clip0_22_2">
<rect width="30" height="30" fill="white"/>
</clipPath>
</defs>
</svg>
